<svg width="21" height="20" viewBox="0 0 21 20" fill="none" xmlns="http://www.w3.org/2000/svg">
<path fill-rule="evenodd" clip-rule="evenodd" d="M9 8.5V4H4.5V8.5H9ZM4.5 3H9C9.552 3 10 3.448 10 4V8.5C10 9.052 9.552 9.5 9 9.5H4.5C3.948 9.5 3.5 9.052 3.5 8.5V4C3.5 3.448 3.948 3 4.5 3ZM9 16V11.5H4.5V16H9ZM4.5 10.5H9C9.552 10.5 10 10.948 10 11.5V16C10 16.552 9.552 17 9 17H4.5C3.948 17 3.5 16.552 3.5 16V11.5C3.5 10.948 3.948 10.5 4.5 10.5ZM16.5 4V8.5H12V4H16.5ZM16.5 3H12C11.448 3 11 3.448 11 4V8.5C11 9.052 11.448 9.5 12 9.5H16.5C17.052 9.5 17.5 9.052 17.5 8.5V4C17.5 3.448 17.052 3 16.5 3ZM16.5 16V11.5H12V16H16.5ZM12 10.5H16.5C17.052 10.5 17.5 10.948 17.5 11.5V16C17.5 16.552 17.052 17 16.5 17H12C11.448 17 11 16.552 11 16V11.5C11 10.948 11.448 10.5 12 10.5Z" fill="#838691"/>
</svg>
