<svg width="21" height="20" viewBox="0 0 21 20" fill="none" xmlns="http://www.w3.org/2000/svg">
<mask id="path-1-inside-1_20_31063" fill="white">
<path fill-rule="evenodd" clip-rule="evenodd" d="M6.5 4.5C6.5 5.32843 5.82843 6 5 6C4.17157 6 3.5 5.32843 3.5 4.5C3.5 3.67157 4.17157 3 5 3C5.82843 3 6.5 3.67157 6.5 4.5ZM8.25 3.75H16.75C17.164 3.75 17.5 4.086 17.5 4.5C17.5 4.914 17.164 5.25 16.75 5.25H8.25C7.836 5.25 7.5 4.914 7.5 4.5C7.5 4.086 7.836 3.75 8.25 3.75ZM5 11.5C5.82843 11.5 6.5 10.8284 6.5 10C6.5 9.17157 5.82843 8.5 5 8.5C4.17157 8.5 3.5 9.17157 3.5 10C3.5 10.8284 4.17157 11.5 5 11.5ZM8.25 9.25H16.75C17.164 9.25 17.5 9.586 17.5 10C17.5 10.414 17.164 10.75 16.75 10.75H8.25C7.836 10.75 7.5 10.414 7.5 10C7.5 9.586 7.836 9.25 8.25 9.25ZM5 17C5.82843 17 6.5 16.3284 6.5 15.5C6.5 14.6716 5.82843 14 5 14C4.17157 14 3.5 14.6716 3.5 15.5C3.5 16.3284 4.17157 17 5 17ZM8.25 14.75H16.75C17.164 14.75 17.5 15.086 17.5 15.5C17.5 15.914 17.164 16.25 16.75 16.25H8.25C7.836 16.25 7.5 15.914 7.5 15.5C7.5 15.086 7.836 14.75 8.25 14.75Z"/>
</mask>
<path d="M5 7C6.38071 7 7.5 5.88071 7.5 4.5H5.5C5.5 4.77614 5.27614 5 5 5V7ZM2.5 4.5C2.5 5.88071 3.61929 7 5 7V5C4.72386 5 4.5 4.77614 4.5 4.5H2.5ZM5 2C3.61929 2 2.5 3.11929 2.5 4.5H4.5C4.5 4.22386 4.72386 4 5 4V2ZM7.5 4.5C7.5 3.11929 6.38071 2 5 2V4C5.27614 4 5.5 4.22386 5.5 4.5H7.5ZM16.75 2.75H8.25V4.75H16.75V2.75ZM18.5 4.5C18.5 3.53372 17.7163 2.75 16.75 2.75V4.75C16.6117 4.75 16.5 4.63828 16.5 4.5H18.5ZM16.75 6.25C17.7163 6.25 18.5 5.46628 18.5 4.5H16.5C16.5 4.36172 16.6117 4.25 16.75 4.25V6.25ZM8.25 6.25H16.75V4.25H8.25V6.25ZM6.5 4.5C6.5 5.46628 7.28372 6.25 8.25 6.25V4.25C8.38828 4.25 8.5 4.36172 8.5 4.5H6.5ZM8.25 2.75C7.28372 2.75 6.5 3.53372 6.5 4.5H8.5C8.5 4.63828 8.38828 4.75 8.25 4.75V2.75ZM5.5 10C5.5 10.2761 5.27614 10.5 5 10.5V12.5C6.38071 12.5 7.5 11.3807 7.5 10H5.5ZM5 9.5C5.27614 9.5 5.5 9.72386 5.5 10H7.5C7.5 8.61929 6.38071 7.5 5 7.5V9.5ZM4.5 10C4.5 9.72386 4.72386 9.5 5 9.5V7.5C3.61929 7.5 2.5 8.61929 2.5 10H4.5ZM5 10.5C4.72386 10.5 4.5 10.2761 4.5 10H2.5C2.5 11.3807 3.61929 12.5 5 12.5V10.5ZM16.75 8.25H8.25V10.25H16.75V8.25ZM18.5 10C18.5 9.03372 17.7163 8.25 16.75 8.25V10.25C16.6117 10.25 16.5 10.1383 16.5 10H18.5ZM16.75 11.75C17.7163 11.75 18.5 10.9663 18.5 10H16.5C16.5 9.86171 16.6117 9.75 16.75 9.75V11.75ZM8.25 11.75H16.75V9.75H8.25V11.75ZM6.5 10C6.5 10.9663 7.28372 11.75 8.25 11.75V9.75C8.38828 9.75 8.5 9.86171 8.5 10H6.5ZM8.25 8.25C7.28372 8.25 6.5 9.03372 6.5 10H8.5C8.5 10.1383 8.38828 10.25 8.25 10.25V8.25ZM5.5 15.5C5.5 15.7761 5.27614 16 5 16V18C6.38071 18 7.5 16.8807 7.5 15.5H5.5ZM5 15C5.27614 15 5.5 15.2239 5.5 15.5H7.5C7.5 14.1193 6.38071 13 5 13V15ZM4.5 15.5C4.5 15.2239 4.72386 15 5 15V13C3.61929 13 2.5 14.1193 2.5 15.5H4.5ZM5 16C4.72386 16 4.5 15.7761 4.5 15.5H2.5C2.5 16.8807 3.61929 18 5 18V16ZM16.75 13.75H8.25V15.75H16.75V13.75ZM18.5 15.5C18.5 14.5337 17.7163 13.75 16.75 13.75V15.75C16.6117 15.75 16.5 15.6383 16.5 15.5H18.5ZM16.75 17.25C17.7163 17.25 18.5 16.4663 18.5 15.5H16.5C16.5 15.3617 16.6117 15.25 16.75 15.25V17.25ZM8.25 17.25H16.75V15.25H8.25V17.25ZM6.5 15.5C6.5 16.4663 7.28371 17.25 8.25 17.25V15.25C8.38829 15.25 8.5 15.3617 8.5 15.5H6.5ZM8.25 13.75C7.28371 13.75 6.5 14.5337 6.5 15.5H8.5C8.5 15.6383 8.38829 15.75 8.25 15.75V13.75Z" fill="#838691" mask="url(#path-1-inside-1_20_31063)"/>
</svg>
