<svg width="21" height="20" viewBox="0 0 21 20" fill="none" xmlns="http://www.w3.org/2000/svg">
<path d="M17.353 16.1465L14.506 13.3025C15.437 12.2115 16 10.7975 16 9.25049C16 5.79849 13.202 3.00049 9.75 3.00049C6.298 3.00049 3.5 5.79849 3.5 9.25049C3.5 12.7025 6.298 15.5005 9.75 15.5005C11.295 15.5005 12.708 14.9385 13.799 14.0095L16.647 16.8535C16.745 16.9515 16.872 16.9995 17 16.9995C17.128 16.9995 17.256 16.9505 17.354 16.8525C17.549 16.6585 17.549 16.3415 17.353 16.1465ZM4.5 9.25049C4.5 6.35549 6.855 4.00049 9.75 4.00049C12.645 4.00049 15 6.35549 15 9.25049C15 12.1455 12.645 14.5005 9.75 14.5005C6.855 14.5005 4.5 12.1455 4.5 9.25049Z" fill="#838691"/>
</svg>
