<svg width="28" height="28" viewBox="0 0 28 28" fill="none" xmlns="http://www.w3.org/2000/svg">
<path fill-rule="evenodd" clip-rule="evenodd" d="M19.1701 1.69531C18.3183 2.8073 17.8924 4.01041 17.8924 5.30469V20.125C17.8924 20.5078 17.8738 20.8997 17.8368 21.3008C17.7998 21.7018 17.7442 22.1029 17.6701 22.5039C18.6146 22.3216 19.4803 22.0436 20.2674 21.6699C21.0544 21.2962 21.7627 20.8177 22.3924 20.2344C23.022 19.651 23.5683 18.9629 24.0312 18.1699C24.4942 17.3769 24.8831 16.4792 25.1979 15.4766L25.809 13.5078V0.0273438C22.2349 0.0273438 20.022 0.583328 19.1701 1.69531ZM6.86458 1.55859H5.28125V3.08984H6.86458V1.55859ZM8.44792 3.88281H6.86458V5.41406H8.44792V3.88281ZM6.86458 5.82422H5.28125V7.35547H6.86458V5.82422ZM5.28125 8.12109H3.69792V9.67969H5.28125V8.12109ZM2.11458 0H0.53125V1.55859H2.11458V0ZM9.18403 23.5977C8.69329 22.6133 8.44792 21.4557 8.44792 20.125V8.88672H6.86458V14.6289H5.28125V11.2109H3.69792V12.7422H2.11458V4.26562H0.53125V16.9531C0.53125 18.5208 0.818284 19.9792 1.39236 21.3281C1.96644 22.6771 2.79513 23.8483 3.87847 24.8418C4.96181 25.8353 6.28587 26.61 7.85069 27.166C9.41552 27.722 11.1886 28 13.1701 28L12.434 27.5215C11.9433 27.2025 11.4016 26.7148 10.809 26.0586C10.2164 25.4023 9.67477 24.582 9.18403 23.5977ZM18.309 22.9961C17.0868 23.2695 15.7442 23.3789 14.2812 23.3242C13.2257 23.2695 12.2859 23.1191 11.4618 22.873C10.6377 22.627 9.91088 22.3125 9.28125 21.9297C9.70718 23.7526 10.4942 25.1152 11.6424 26.0176C12.7905 26.9199 13.4016 27.3984 13.4757 27.4531L14.4201 27.9453C16.2164 27.8359 17.8183 27.4805 19.2257 26.8789C20.6331 26.2773 21.8275 25.4889 22.809 24.5137C23.7905 23.5384 24.5359 22.4082 25.0451 21.123C25.5544 19.8379 25.809 18.4479 25.809 16.9531V15.6406C25.3831 17.026 24.8183 18.2155 24.1146 19.209C23.4109 20.2025 22.5729 21.0137 21.6007 21.6426C20.6285 22.2715 19.5313 22.7227 18.309 22.9961ZM5.25347 3.11719H3.69792V4.64844H5.25347V3.11719ZM26.6639 0C26.8119 0 26.9413 0.0528376 27.0523 0.158514C27.1633 0.264191 27.2188 0.391002 27.2188 0.538949C27.2188 0.697465 27.1633 0.829559 27.0523 0.935236C26.9413 1.04091 26.8119 1.09375 26.6639 1.09375C26.516 1.09375 26.3892 1.04091 26.2835 0.935236C26.1778 0.829559 26.125 0.697465 26.125 0.538949C26.125 0.391002 26.1778 0.264191 26.2835 0.158514C26.3892 0.0528376 26.516 0 26.6639 0ZM26.6639 1.01449C26.7908 1.01449 26.8991 0.969581 26.9889 0.879755C27.0787 0.78993 27.1236 0.676329 27.1236 0.538949C27.1236 0.412137 27.0787 0.30382 26.9889 0.213995C26.8991 0.124169 26.7908 0.0792572 26.6639 0.0792572C26.5371 0.0792572 26.4315 0.124169 26.3469 0.213995C26.2624 0.30382 26.2201 0.412137 26.2201 0.538949C26.2201 0.676329 26.2624 0.78993 26.3469 0.879755C26.4315 0.969581 26.5371 1.01449 26.6639 1.01449ZM26.8779 0.531024C26.9044 0.504604 26.9176 0.464976 26.9176 0.412138C26.9176 0.348732 26.9017 0.301178 26.87 0.269475C26.8383 0.237772 26.7802 0.22192 26.6957 0.22192H26.4579V0.855978H26.553V0.586504H26.6639L26.8383 0.855978H26.9334L26.7591 0.586504C26.8119 0.575936 26.8515 0.557443 26.8779 0.531024ZM26.6639 0.507246C26.7062 0.507246 26.7432 0.501963 26.7749 0.491395C26.8066 0.480827 26.8225 0.454408 26.8225 0.412138C26.8225 0.369867 26.8093 0.340806 26.7828 0.324955C26.7564 0.309103 26.7221 0.301178 26.6798 0.301178H26.553V0.507246H26.6639Z" fill="url(#paint0_linear_12179_913)"/>
<defs>
<linearGradient id="paint0_linear_12179_913" x1="9.34704" y1="43.0457" x2="28.553" y2="19.4519" gradientUnits="userSpaceOnUse">
<stop stop-color="#C2C4CE"/>
<stop offset="0.39697" stop-color="#D6D9E2"/>
<stop offset="1" stop-color="white"/>
</linearGradient>
</defs>
</svg>
